<?xml version="1.0" encoding="UTF-8"?>
<svg width="17.2mm" height="17.2mm" version="1.1" viewBox="0 0 17.2 17.2" xmlns="http://www.w3.org/2000/svg" xmlns:cc="http://creativecommons.org/ns#" xmlns:dc="http://purl.org/dc/elements/1.1/" xmlns:rdf="http://www.w3.org/1999/02/22-rdf-syntax-ns#">
 <metadata>
  <rdf:RDF>
   <cc:Work rdf:about="">
    <dc:format>image/svg+xml</dc:format>
    <dc:type rdf:resource="http://purl.org/dc/dcmitype/StillImage"/>
   </cc:Work>
  </rdf:RDF>
 </metadata>
 <g transform="translate(-60.9 -48.9)">
  <g transform="matrix(.265 0 0 .265 15.9 48.9)">
   <path class="st0" d="m199 0.2c4.7-0.5 9.6-0.1 14.1 1.4 1 0.3 1.9 0.6 2.9 0.9l0.1 0.1c0.2 0.2 0.5 0.4 0.8 0.6 7.7 3.6 13.7 10.3 16.5 18.1 2.3 6.3 2.6 13.3 0.8 19.8-2.2 8.1-7.8 15.4-15.4 19.7-3.7 2.1-7.8 3.4-12 3.9-2 0.3-4.1 0.3-6.2 0.2-1-0.1-2-0.4-3.1-0.4-3.6-0.7-7.1-1.8-10.3-3.6-6.2-3.4-11.2-8.8-14-15.2-2.4-5.3-3.3-11.1-2.6-16.9 0.6-5.7 2.8-11.2 6.3-15.9 2.2-2.9 4.8-5.4 7.9-7.5 4.3-2.7 9.2-4.6 14.2-5.2" fill="#671a1d"/>
   <path class="st2" d="m200 14.3c1.5-1.4 3.6-1.9 5.6-2h6.4v6.9h-4.4c-0.5 0-1 0.1-1.4 0.5s-0.5 1-0.5 1.5v4.1h6.2c-0.2 2.4-0.5 4.7-0.7 7.1h-5.5v20.1h-8.3v-20.1h-4v-7c1.3-0.1 2.6 0 4 0v-4.9c0.1-2.4 0.9-4.7 2.6-6.2z" fill="#fff"/>
  </g>
 </g>
</svg>
