<?xml version="1.0" encoding="UTF-8"?>
<svg enable-background="new 0 0 65 65" version="1.1" viewBox="0 0 65 65" xml:space="preserve" xmlns="http://www.w3.org/2000/svg" xmlns:cc="http://creativecommons.org/ns#" xmlns:dc="http://purl.org/dc/elements/1.1/" xmlns:rdf="http://www.w3.org/1999/02/22-rdf-syntax-ns#"><metadata><rdf:RDF><cc:Work rdf:about=""><dc:format>image/svg+xml</dc:format><dc:type rdf:resource="http://purl.org/dc/dcmitype/StillImage"/></cc:Work></rdf:RDF></metadata>
<style type="text/css">
	.st0{fill:#671A1D;}
</style>

<g><ellipse cx="32.6" cy="32.6" rx="30.4" ry="30" fill="#fff" stroke="#671a1d" stroke-dashoffset="3" stroke-width="2"/><g fill="#671a1d">
	<path class="st0" d="m32.5 39c3.6 0 6.5-2.9 6.5-6.5 0-1.4-0.5-2.7-1.2-3.8-1.2-1.6-3.1-2.7-5.3-2.7s-4.1 1.1-5.3 2.7c-0.8 1.1-1.2 2.4-1.2 3.8 0 3.6 2.9 6.5 6.5 6.5z"/>
	<path class="st0" d="m46.7 24.5v-6.3h-0.8-5.5v6.3h6.3z"/>
	<path class="st0" d="m32.5 0c-17.9 0-32.5 14.6-32.5 32.5s14.6 32.5 32.5 32.5 32.5-14.6 32.5-32.5-14.6-32.5-32.5-32.5zm18.5 28.7v15.1c0 3.9-3.2 7.1-7.1 7.1h-22.7c-3.9 0-7.1-3.2-7.1-7.1v-22.6c0-3.9 3.2-7.1 7.1-7.1h22.7c3.9 0 7.1 3.2 7.1 7.1v7.5z"/>
	<path class="st0" d="m42.6 32.5c0 5.6-4.5 10.1-10.1 10.1s-10.1-4.5-10.1-10.1c0-1.3 0.3-2.6 0.7-3.8h-5.5v15.1c0 2 1.6 3.5 3.5 3.5h22.7c2 0 3.5-1.6 3.5-3.5v-15.1h-5.5c0.5 1.2 0.8 2.5 0.8 3.8z"/>
</g></g></svg>
