<?xml version="1.0" encoding="UTF-8"?>
<svg width="17.2mm" height="17.2mm" version="1.1" viewBox="0 0 17.2 17.2" xmlns="http://www.w3.org/2000/svg" xmlns:cc="http://creativecommons.org/ns#" xmlns:dc="http://purl.org/dc/elements/1.1/" xmlns:rdf="http://www.w3.org/1999/02/22-rdf-syntax-ns#">
 <metadata>
  <rdf:RDF>
   <cc:Work rdf:about="">
    <dc:format>image/svg+xml</dc:format>
    <dc:type rdf:resource="http://purl.org/dc/dcmitype/StillImage"/>
   </cc:Work>
  </rdf:RDF>
 </metadata>
 <g transform="translate(-60.9 -48.9)">
  <g transform="matrix(.265 0 0 .265 15.9 26.4)">
   <path class="st0" d="m199 85.4c4.7-0.5 9.6-0.1 14.1 1.4 1 0.3 1.9 0.6 2.9 0.9l0.1 0.1c0.2 0.2 0.5 0.4 0.8 0.6 7.7 3.6 13.7 10.3 16.5 18.1 2.3 6.3 2.6 13.3 0.8 19.8-2.2 8.1-7.8 15.4-15.4 19.7-3.7 2.1-7.8 3.4-12 3.9-2 0.3-4.1 0.3-6.2 0.2-1-0.1-2-0.4-3.1-0.4-3.6-0.7-7.1-1.8-10.3-3.6-6.2-3.4-11.2-8.8-14-15.2-2.4-5.3-3.3-11.1-2.6-16.9 0.6-5.7 2.8-11.2 6.3-15.9 2.2-2.9 4.8-5.4 7.9-7.5 4.3-2.8 9.2-4.6 14.2-5.2" fill="#671a1d"/>
   <path class="st2" d="m210 115 12.2-10.5c0.1 0.3 0.2 0.5 0.2 0.8v23.1c0 0.2-0.1 0.4-0.1 0.6zm9.5-12.5c0.2 0 0.4 0.1 0.5 0.1l-17.9 15.3-17.8-15.3c0.2 0 0.3-0.1 0.5-0.1zm-37.4 26.5c0-0.2-0.1-0.4-0.1-0.6v-23.1c0-0.3 0.1-0.6 0.2-0.8l12.2 10.5zm2.7 2.3c-0.3 0-0.6-0.1-0.8-0.2l12.5-14.3 4.7 4c0.3 0.2 0.6 0.3 0.9 0.3s0.7-0.1 0.9-0.3l4.7-4 12.5 14.3c-0.3 0.1-0.5 0.2-0.8 0.2z" fill="#fff"/>
  </g>
 </g>
</svg>
