<?xml version="1.0" encoding="UTF-8"?>
<svg width="17.2mm" height="17.2mm" version="1.1" viewBox="0 0 17.2 17.2" xmlns="http://www.w3.org/2000/svg" xmlns:cc="http://creativecommons.org/ns#" xmlns:dc="http://purl.org/dc/elements/1.1/" xmlns:rdf="http://www.w3.org/1999/02/22-rdf-syntax-ns#">
 <metadata>
  <rdf:RDF>
   <cc:Work rdf:about="">
    <dc:format>image/svg+xml</dc:format>
    <dc:type rdf:resource="http://purl.org/dc/dcmitype/StillImage"/>
   </cc:Work>
  </rdf:RDF>
 </metadata>
 <g transform="translate(-60.9 -48.9)">
  <path class="st0" d="m68.5 49c1.24-0.132 2.54-0.0265 3.73 0.37 0.265 0.0794 0.503 0.159 0.767 0.238l0.0265 0.0265c0.0529 0.0529 0.106 0.106 0.185 0.132 2.04 0.979 3.62 2.75 4.37 4.79 0.609 1.67 0.688 3.52 0.212 5.24-0.582 2.14-2.06 4.07-4.07 5.21-0.979 0.556-2.06 0.9-3.18 1.03-0.529 0.0794-1.08 0.0794-1.64 0.0529-0.265-0.0265-0.529-0.106-0.82-0.106-0.952-0.185-1.88-0.476-2.73-0.952-1.64-0.9-2.96-2.33-3.7-4.02-0.635-1.4-0.873-2.94-0.688-4.47 0.212-1.48 0.794-2.94 1.72-4.18 0.582-0.767 1.27-1.43 2.09-1.98 1.11-0.714 2.38-1.22 3.73-1.38" fill="#671a1d" stroke-width=".265"/>
  <g transform="matrix(.265 0 0 .265 61 48.9)" fill="#fff">
   <path class="st2" d="m32.6 12c-5.9 0-10.6 4.7-10.6 10.6s4.7 10.6 10.6 10.6 10.6-4.7 10.6-10.6-4.8-10.6-10.6-10.6zm0 15c-2.4 0-4.4-2-4.4-4.4s2-4.4 4.4-4.4 4.4 2 4.4 4.4-2 4.4-4.4 4.4z"/>
   <path class="st2" d="m36.3 41.6c4.2-0.9 6.8-2.9 6.9-3 1.2-1 1.4-2.8 0.4-4s-2.8-1.4-4-0.4c0 0-2.7 2.1-7.2 2.1s-7.2-2.1-7.2-2.1c-1.2-1-3-0.8-4 0.4s-0.8 3 0.4 4c0.1 0.1 2.8 2.2 7.1 3l-6 6.4c-1.1 1.1-1.1 3 0.1 4.1 0.6 0.5 1.3 0.8 2 0.8 0.8 0 1.5-0.3 2.1-0.9l5.6-6 6.2 6c1.1 1.1 2.9 1.1 4.1 0 1.1-1.1 1.1-2.9 0-4.1z"/>
   <path class="st2" d="m32.4 36.2s0.1 0 0 0 0.1 0 0 0z"/>
  </g>
 </g>
</svg>
