<?xml version="1.0" encoding="UTF-8"?>
<svg width="17.2mm" height="17.2mm" version="1.1" viewBox="0 0 17.2 17.2" xmlns="http://www.w3.org/2000/svg" xmlns:cc="http://creativecommons.org/ns#" xmlns:dc="http://purl.org/dc/elements/1.1/" xmlns:rdf="http://www.w3.org/1999/02/22-rdf-syntax-ns#">
 <metadata>
  <rdf:RDF>
   <cc:Work rdf:about="">
    <dc:format>image/svg+xml</dc:format>
    <dc:type rdf:resource="http://purl.org/dc/dcmitype/StillImage"/>
   </cc:Work>
  </rdf:RDF>
 </metadata>
 <g transform="translate(-60.9 -48.9)">
  <path class="st0" d="m68.5 49c1.24-0.132 2.54-0.0265 3.73 0.37 0.265 0.0794 0.503 0.159 0.767 0.238l0.0265 0.0265c0.0529 0.0529 0.132 0.106 0.212 0.159 2.04 0.952 3.62 2.73 4.37 4.79 0.609 1.67 0.688 3.52 0.212 5.24-0.582 2.14-2.06 4.07-4.07 5.21-0.979 0.556-2.06 0.9-3.18 1.03-0.529 0.0794-1.08 0.0794-1.64 0.0529-0.265-0.0265-0.529-0.106-0.82-0.106-0.952-0.185-1.88-0.476-2.73-0.952-1.64-0.9-2.96-2.33-3.7-4.02-0.635-1.4-0.873-2.94-0.688-4.47 0.159-1.51 0.741-2.96 1.67-4.21 0.582-0.767 1.27-1.43 2.09-1.98 1.11-0.741 2.41-1.22 3.76-1.38" fill="#671a1d" stroke-width=".265"/>
  <g transform="matrix(.265 0 0 .265 -6.6 26.4)">
   <path class="st2" d="m303 100c-1.1-1-5.3-4.1-14.9-4.1 0 0-11.3-0.7-16.7 4.4-3.1 3.1-4.1 7.5-4.2 13.1-0.1 5.5-0.3 15.9 9.8 18.7v4.3s-0.1 1.7 1.1 2.1c1.4 0.4 2.2-0.9 3.5-2.3 0.7-0.8 1.7-1.9 2.5-2.8 6.8 0.6 12.1-0.7 12.7-0.9 1.4-0.4 9.2-1.5 10.5-11.8 1.1-10.9-0.8-17.6-4.3-20.7zm1.1 19.8c-1.1 8.7-7.4 9.2-8.6 9.6-0.5 0.2-5.1 1.3-10.9 0.9 0 0-4.3 5.2-5.7 6.6-0.2 0.2-0.5 0.3-0.6 0.3-0.2-0.1-0.3-0.3-0.3-0.7v-7.1c-8.5-2.4-8-11.2-7.9-15.8s1-8.4 3.5-11c4.6-4.2 14.2-3.6 14.2-3.6 8.1 0 11.9 2.5 12.8 3.3 3.1 2.4 4.6 8.5 3.5 17.5z" fill="#fff"/>
   <path class="st2" d="m292 114c-0.3 0-0.5-0.2-0.5-0.5-0.1-1.8-1-2.7-2.7-2.8-0.3 0-0.5-0.3-0.5-0.6s0.3-0.5 0.6-0.5c2.3 0.1 3.6 1.5 3.7 3.8-0.1 0.3-0.3 0.6-0.6 0.6z" fill="#fff"/>
   <path class="st2" d="m295 115c-0.1 0-0.1 0 0 0-0.3 0-0.5-0.3-0.5-0.6 0-1.8-0.5-3.3-1.6-4.6-1.1-1.2-2.7-1.9-4.7-2-0.3 0-0.5-0.3-0.5-0.6s0.3-0.5 0.6-0.5c2.3 0.2 4.1 1 5.4 2.4s1.9 3.2 1.9 5.3c-0.1 0.4-0.4 0.6-0.6 0.6z" fill="#fff"/>
   <path class="st2" d="m298 116c-0.3 0-0.5-0.2-0.5-0.5 0-3.3-1-5.8-2.9-7.7s-4.3-2.8-7.2-2.8c-0.3 0-0.5-0.2-0.5-0.5s0.2-0.5 0.5-0.5c3.1 0 5.8 1.1 7.9 3.1 2.1 2.1 3.2 4.9 3.2 8.5 0 0.2-0.2 0.4-0.5 0.4z" fill="#fff"/>
   <path class="st2" d="m289 121s0.8 0.1 1.2-0.4l0.8-1c0.4-0.5 1.3-0.8 2.2-0.3 0.5 0.3 1.4 0.8 2 1.3 0.6 0.4 1.8 1.5 1.8 1.5 0.6 0.5 0.7 1.2 0.3 2-0.4 0.7-1 1.4-1.7 2-0.6 0.5-1.1 0.7-1.7 0.8h-0.2c-0.2 0-0.5 0-0.7-0.1-0.9-0.2-2.3-0.8-4.6-2.1-1.5-0.8-2.8-1.7-3.9-2.6-0.6-0.4-1.2-1-1.7-1.5l-0.4-0.4c-0.6-0.6-1.1-1.2-1.5-1.7-0.9-1.1-1.7-2.4-2.6-3.9-1.3-2.4-1.9-3.8-2.1-4.6-0.1-0.2-0.1-0.5-0.1-0.7v-0.2c0.1-0.6 0.3-1.1 0.8-1.7 0.6-0.7 1.3-1.2 2-1.7 0.8-0.4 1.5-0.3 2 0.3l1.5 1.8c0.4 0.6 1 1.5 1.3 2 0.5 0.9 0.2 1.8-0.3 2.2l-1 0.8c-0.5 0.4-0.4 1.2-0.4 1.2s1.4 5.6 7 7z" fill="#fff"/>
  </g>
 </g>
</svg>
