<?xml version="1.0" encoding="UTF-8"?>
<svg width="17.2mm" height="17.2mm" version="1.1" viewBox="0 0 17.2 17.2" xmlns="http://www.w3.org/2000/svg" xmlns:cc="http://creativecommons.org/ns#" xmlns:dc="http://purl.org/dc/elements/1.1/" xmlns:rdf="http://www.w3.org/1999/02/22-rdf-syntax-ns#">
 <metadata>
  <rdf:RDF>
   <cc:Work rdf:about="">
    <dc:format>image/svg+xml</dc:format>
    <dc:type rdf:resource="http://purl.org/dc/dcmitype/StillImage"/>
   </cc:Work>
  </rdf:RDF>
 </metadata>
 <g transform="translate(-60.9 -48.9)">
  <g transform="matrix(.265 0 0 .265 38.3 49)">
   <path class="st0" d="m102 3.8c4.5-2.4 9.6-3.8 14.7-3.8 3.3-0.1 6.6 0.4 9.8 1.3 1.1 0.4 2.3 0.7 3.4 1.1l0.1 0.1c0.3 0.3 0.8 0.4 1.2 0.6 4.5 2.2 8.6 5.3 11.6 9.2 5.1 6.4 7.5 14.6 6.9 22.6-0.4 4.9-1.9 9.8-4.5 14.1-2.5 4.2-6 7.9-10.2 10.6-3.9 2.5-8.3 4.2-13 4.9-0.8 0.1-1.7 0.3-2.5 0.3-1.6 0-3.2 0.1-4.8-0.1-0.9 0-1.7-0.2-2.6-0.3-2.2-0.4-4.4-1-6.5-1.8-6.7-2.6-12.4-7.6-16-13.6-2.9-4.9-4.5-10.5-4.5-16.1-0.1-6.2 1.6-12.4 5-17.7 2.7-4.8 6.9-8.7 11.9-11.4" fill="#671a1d"/>
   <path class="st1" d="m111 20.7c-0.8 0.2-1.8 0.7-2 1.6 0.8 0.2 1.8 0.4 2.3 1.2s0.6 1.7 0.7 2.5c0.1 2 0.2 4.1-0.2 6.1-0.1 0.5-0.3 1.2-0.8 1.5-0.6 0.3-1.2-0.1-1.6-0.5-1.1-1.1-1.9-2.4-2.7-3.6-1.3-2.1-2.4-4.3-3.3-6.6-0.3-0.8-1.1-1.2-1.9-1.2h-6.4c-0.6 0-1.2 0.1-1.6 0.5-0.2 0.4-0.1 1 0.1 1.4 1 2.2 2 4.3 3.1 6.4 2.1 4 4.5 8 7.5 11.4 2.6 3 6.2 5.2 10.1 5.8 1.5 0.3 3.1 0.2 4.7 0.2 0.6 0 1.2-0.1 1.7-0.5 0.4-0.3 0.5-0.9 0.5-1.4 0-1 0.1-2.1 0.5-3.1 0.2-0.6 0.7-1.2 1.4-1.3 0.6 0 1.2 0.4 1.6 0.8 1.3 1.2 2.3 2.6 3.6 3.8 1 0.9 2.3 1.7 3.7 1.7 2.2-0.1 4.4-0.1 6.6-0.1 0.8-0.1 1.6-0.3 2.1-0.9 0.4-0.6 0.1-1.3-0.2-1.8-1-1.7-2.4-3.2-3.8-4.6-0.9-0.9-2-1.8-2.9-2.8-0.4-0.5-0.9-1.1-0.7-1.8 0.2-0.8 0.7-1.5 1.1-2.1 1.6-2.2 3.3-4.2 4.8-6.5 0.7-1.1 1.4-2.2 1.7-3.4 0.1-0.5 0.2-1.1-0.2-1.5-0.7-0.5-1.6-0.4-2.5-0.3h-6.5c-0.4 0-0.9-0.1-1.3 0.2s-0.6 0.8-0.8 1.3c-0.8 2.1-1.8 4.1-3 6-0.8 1.3-1.7 2.6-2.8 3.7-0.4 0.3-0.8 0.8-1.4 0.7-0.6-0.2-0.9-0.8-1-1.4-0.3-1.3-0.1-2.5-0.1-3.8 0-1.8 0.2-3.6 0.1-5.4 0-0.8-0.3-1.8-1.1-2.1-1.4-0.5-2.9-0.5-4.4-0.5-1.7 0-3.2 0-4.7 0.4z" fill="#4d76a1"/>
   <g id="_x23_ffffffff_1_">
    <path class="st2" d="m111 20.7c1.5-0.4 3.1-0.3 4.6-0.3s3 0 4.4 0.5c0.8 0.3 1.1 1.3 1.1 2.1 0.1 1.8-0.1 3.6-0.1 5.4 0 1.3-0.2 2.5 0.1 3.8 0.1 0.6 0.4 1.2 1 1.4 0.5 0 1-0.4 1.4-0.7 1.1-1.1 1.9-2.4 2.8-3.7 1.2-1.9 2.2-3.9 3-6 0.2-0.5 0.4-1 0.8-1.3s0.9-0.2 1.3-0.2h6.5c0.8 0 1.7-0.1 2.5 0.3 0.5 0.3 0.4 1 0.2 1.5-0.4 1.2-1 2.3-1.7 3.4-1.5 2.3-3.2 4.3-4.8 6.5-0.5 0.6-1 1.3-1.1 2.1-0.1 0.7 0.3 1.3 0.7 1.8 0.9 1 1.9 1.8 2.9 2.8 1.4 1.4 2.8 2.8 3.8 4.6 0.3 0.5 0.6 1.3 0.2 1.8-0.5 0.7-1.3 0.9-2.1 0.9-2.2 0-4.4 0-6.6 0.1-1.4 0-2.7-0.8-3.7-1.7-1.3-1.2-2.3-2.7-3.6-3.8-0.5-0.4-1-0.8-1.6-0.8-0.7 0.1-1.1 0.7-1.4 1.3-0.4 1-0.5 2-0.5 3.1 0 0.5-0.1 1-0.5 1.4-0.5 0.4-1.1 0.5-1.7 0.5-1.6 0-3.1 0.1-4.7-0.2-3.9-0.7-7.5-2.9-10.1-5.8-3-3.4-5.3-7.4-7.5-11.4-1.1-2.1-2.1-4.2-3.1-6.4-0.2-0.4-0.4-1-0.1-1.4 0.4-0.5 1-0.5 1.6-0.5h6.4c0.8 0 1.6 0.4 1.9 1.2 0.9 2.3 2 4.5 3.3 6.6 0.8 1.3 1.6 2.6 2.7 3.6 0.4 0.4 1 0.8 1.6 0.5 0.5-0.3 0.7-1 0.8-1.5 0.4-2 0.3-4 0.2-6.1-0.1-0.9-0.2-1.8-0.7-2.5s-1.4-1-2.3-1.2c0.3-1.1 1.2-1.5 2.1-1.7z" fill="#fff"/>
   </g>
  </g>
 </g>
</svg>
